# xmcd
#
# Track frame offsets: 
#        150
#        29917
#        61488
#        89126
#        109542
#        138884
#        165053
#        194965
#        217120
#        241431
#        264140
#        291832
#
# Disc length: 4344 seconds
#
# Revision: 0
# Processed by: cddbd v1.5.2PL0 Copyright (c) Steve Scherf et al.
# Submitted via: ExactAudioCopyFreeDBPlugin 1.0
#
DISCID=b710f60c
DTITLE=Fresh&Majestic - Www.Defilespb.Ru
DYEAR=1900
DGENRE=house
TTITLE0=Www.Defilespb.Ru - 01
TTITLE1=Www.Defilespb.Ru - 02
TTITLE2=Www.Defilespb.Ru - 03
TTITLE3=Www.Defilespb.Ru - 04
TTITLE4=Www.Defilespb.Ru - 05
TTITLE5=Www.Defilespb.Ru - 06
TTITLE6=Www.Defilespb.Ru - 07
TTITLE7=Www.Defilespb.Ru - 08
TTITLE8=Www.Defilespb.Ru - 09
TTITLE9=Www.Defilespb.Ru - 10
TTITLE10=Www.Defilespb.Ru - 11
TTITLE11=Www.Defilespb.Ru - 12
EXTD=
EXTT0=
EXTT1=
EXTT2=
EXTT3=
EXTT4=
EXTT5=
EXTT6=
EXTT7=
EXTT8=
EXTT9=
EXTT10=
EXTT11=
PLAYORDER=
